<?xml version="1.0" encoding="utf-8"?>
<!-- Generator: Adobe Illustrator 19.0.0, SVG Export Plug-In . SVG Version: 6.00 Build 0)  -->
<svg version="1.1" id="Layer_1" xmlns="http://www.w3.org/2000/svg" xmlns:xlink="http://www.w3.org/1999/xlink" x="0px" y="0px"
	 viewBox="0 0 1116 6.9" style="enable-background:new 0 0 1116 6.9;" xml:space="preserve">
<style type="text/css">
	.st0{fill:none;}
	.st1{fill:none;stroke:#D1D3D4;stroke-miterlimit:10;}
</style>
<g id="XMLID_147_">
	<polygon id="XMLID_154_" class="st0" points="514.3,246.5 514.3,246.5 514.4,246.5 	"/>
	<polyline id="XMLID_155_" class="st0" points="514.3,246.5 514.4,246.5 514.3,246.5 514.3,246.5 	"/>
	<polyline id="XMLID_131_" class="st0" points="573.8,246.5 570,250.1 566.3,246.5 562.6,250.1 558.9,246.5 555.2,250.1 
		551.5,246.5 547.7,250.1 544,246.5 540.3,250.1 536.6,246.5 532.9,250.1 529.2,246.5 525.5,250.1 521.8,246.5 518.1,250.1 
		514.3,246.5 	"/>
	<polyline id="XMLID_157_" class="st0" points="514.3,246.5 510.6,250.1 510.6,250.1 510.6,250.1 506.9,246.5 503.2,250.1 
		503.2,250.1 503.2,250.1 499.5,246.5 495.8,250.1 495.8,250.1 495.8,250.1 492.1,246.5 488.4,250.1 488.4,250.1 488.4,250.1 
		484.6,246.5 480.9,250.1 480.9,250.1 480.9,250.1 477.2,246.5 473.5,250.1 473.5,250.1 473.5,250.1 469.8,246.5 466.1,250.1 
		466.1,250.1 466.1,250.1 462.4,246.5 458.7,250.1 458.7,250.1 458.7,250.1 455,246.5 451.2,250.1 451.2,250.1 451.2,250.1 
		447.5,246.5 443.8,250.1 443.8,250.1 443.8,250.1 440.1,246.5 436.4,250.1 436.4,250.1 436.4,250.1 432.7,246.5 429,250.1 
		429,250.1 429,250.1 425.3,246.5 421.6,250.1 421.6,250.1 421.5,250.1 417.8,246.5 414.1,250.1 414.1,250.1 414.1,250.1 
		410.4,246.5 406.7,250.1 406.7,250.1 406.7,250.1 403,246.5 399.3,250.1 399.3,250.1 399.3,250.1 395.6,246.5 391.9,250.1 
		391.9,250.1 391.9,250.1 388.1,246.5 384.4,250.1 384.4,250.1 384.4,250.1 380.7,246.5 377,250.1 377,250.1 377,250.1 373.3,246.5 
		369.6,250.1 369.6,250.1 369.6,250.1 365.9,246.5 362.2,250.1 362.2,250.1 362.2,250.1 358.5,246.5 354.7,250.1 354.7,250.1 
		354.7,250.1 351,246.5 347.3,250.1 347.3,250.1 347.3,250.1 343.6,246.5 339.9,250.1 339.9,250.1 339.9,250.1 336.2,246.5 
		332.5,250.1 332.5,250.1 332.5,250.1 328.8,246.5 325.1,250.1 325.1,250.1 325.1,250.1 321.3,246.5 317.6,250.1 317.6,250.1 
		317.6,250.1 313.9,246.5 310.2,250.1 310.2,250.1 310.2,250.1 306.5,246.5 302.8,250.1 302.8,250.1 302.8,250.1 299.1,246.5 
		295.4,250.1 295.4,250.1 295.4,250.1 291.7,246.5 287.9,250.1 287.9,250.1 287.9,250.1 284.2,246.5 280.5,250.1 280.5,250.1 
		280.5,250.1 276.8,246.5 273.1,250.1 273.1,250.1 273.1,250.1 269.4,246.5 265.7,250.1 265.7,250.1 265.7,250.1 262,246.5 
		258.3,250.1 258.2,250.1 258.2,250.1 254.5,246.5 250.8,250.1 250.8,250.1 250.8,250.1 247.1,246.5 243.4,250.1 243.4,250.1 
		243.4,250.1 239.7,246.5 236,250.1 236,250.1 236,250.1 232.3,246.5 228.6,250.1 228.6,250.1 228.6,250.1 224.8,246.5 221.1,250.1 
		221.1,250.1 221.1,250.1 217.4,246.5 213.7,250.1 213.7,250.1 213.7,250.1 210,246.5 206.3,250.1 206.3,250.1 206.3,250.1 
		202.6,246.5 198.9,250.1 198.9,250.1 198.9,250.1 195.2,246.5 191.4,250.1 191.4,250.1 191.4,250.1 187.7,246.5 184,250.1 
		184,250.1 184,250.1 180.3,246.5 176.6,250.1 176.6,250.1 176.6,250.1 172.9,246.5 169.2,250.1 169.2,250.1 169.2,250.1 
		165.5,246.5 161.8,250.1 161.7,250.1 161.7,250.1 158,246.5 154.3,250.1 154.3,250.1 154.3,250.1 150.6,246.5 146.9,250.1 
		143.2,246.2 143.2,246 143.2,246 143.2,246.2 139.5,250 135.8,246.4 132.1,250.1 128.3,246.5 124.6,250.1 120.9,246.5 117.2,250.1 
		113.5,246.5 109.8,250.1 106.1,246.5 102.4,250.1 98.7,246.5 94.9,250.1 91.2,246.5 87.5,250.1 83.8,246.5 80.1,250.1 76.4,246.5 
		72.7,250.1 68.9,246.5 65.2,250.1 61.5,246.5 57.8,250.1 54.1,246.5 50.4,250.1 46.7,246.5 43,250.1 39.3,246.5 35.6,250.1 
		31.8,246.5 28.1,250.1 24.4,246.4 20.7,250 17.2,245.8 	"/>
</g>
<polyline id="XMLID_5_" class="st1" points="1114.8,1.4 1111,5.3 1107.3,1.4 1103.6,5.3 1099.9,1.4 1096.2,5.3 1092.5,1.4 
	1088.8,5.3 1085.1,1.4 1081.3,5.3 1077.6,1.4 1073.9,5.3 1070.2,1.4 1066.5,5.3 1062.8,1.4 1059.1,5.3 1055.3,1.4 1051.6,5.3 
	1051.6,5.3 1051.6,5.3 1047.9,1.4 1044.2,5.3 1044.2,5.3 1044.2,5.3 1040.5,1.4 1036.8,5.3 1036.8,5.3 1036.8,5.3 1033.1,1.4 
	1029.4,5.3 1029.4,5.3 1029.3,5.3 1025.6,1.4 1021.9,5.3 1021.9,5.3 1021.9,5.3 1018.2,1.4 1014.5,5.3 1014.5,5.3 1014.5,5.3 
	1010.8,1.4 1007.1,5.3 1007.1,5.3 1007.1,5.3 1003.4,1.4 999.6,5.3 999.6,5.3 999.6,5.3 995.9,1.4 992.2,5.3 992.2,5.3 992.2,5.3 
	988.5,1.4 984.8,5.3 984.8,5.3 984.8,5.3 981.1,1.4 977.4,5.3 977.4,5.3 977.4,5.3 973.7,1.4 969.9,5.3 969.9,5.3 969.9,5.3 
	966.2,1.4 962.5,5.3 962.5,5.3 962.5,5.3 958.8,1.4 955.1,5.3 955.1,5.3 955.1,5.3 951.4,1.4 947.7,5.3 947.7,5.3 947.7,5.3 
	943.9,1.4 940.2,5.3 940.2,5.3 940.2,5.3 936.5,1.4 932.8,5.3 932.8,5.3 932.8,5.3 929.1,1.4 925.4,5.3 925.4,5.3 925.4,5.3 
	921.7,1.4 918,5.3 918,5.3 918,5.3 914.2,1.4 910.5,5.3 910.5,5.3 910.5,5.3 906.8,1.4 903.1,5.3 903.1,5.3 903.1,5.3 899.4,1.4 
	895.7,5.3 895.7,5.3 895.7,5.3 892,1.4 888.3,5.3 888.2,5.3 888.2,5.3 884.5,1.4 880.8,5.3 880.8,5.3 880.8,5.3 877.1,1.4 
	873.4,5.3 873.4,5.3 873.4,5.3 869.7,1.4 866,5.3 866,5.3 866,5.3 862.3,1.4 858.5,5.3 858.5,5.3 858.5,5.3 854.8,1.4 851.1,5.3 
	851.1,5.3 851.1,5.3 847.4,1.4 843.7,5.3 843.7,5.3 843.7,5.3 840,1.4 836.3,5.3 836.3,5.3 836.3,5.3 832.5,1.4 828.8,5.3 
	828.8,5.3 828.8,5.3 825.1,1.4 821.4,5.3 821.4,5.3 821.4,5.3 817.7,1.4 814,5.3 814,5.3 814,5.3 810.3,1.4 806.6,5.3 806.6,5.3 
	806.6,5.3 802.8,1.4 799.1,5.3 799.1,5.3 799.1,5.3 795.4,1.4 791.7,5.3 791.7,5.3 791.7,5.3 788,1.4 784.3,5.3 784.3,5.3 
	784.3,5.3 780.6,1.4 776.9,5.3 776.9,5.3 776.8,5.3 773.1,1.4 769.4,5.3 769.4,5.3 769.4,5.3 765.7,1.4 762,5.3 762,5.3 762,5.3 
	758.3,1.4 754.6,5.3 754.6,5.3 754.6,5.3 750.9,1.4 747.1,5.3 747.1,5.3 747.1,5.3 743.4,1.4 739.7,5.3 739.7,5.3 739.7,5.3 
	736,1.4 732.3,5.3 732.3,5.3 732.3,5.3 728.6,1.4 724.9,5.3 724.9,5.3 724.9,5.3 721.2,1.4 717.4,5.3 717.4,5.3 717.4,5.3 
	713.7,1.4 710,5.3 710,5.3 710,5.3 706.3,1.4 702.6,5.3 698.9,1.4 695.2,5.3 691.5,1.4 687.7,5.3 684,1.4 680.3,5.3 676.6,1.4 
	672.9,5.3 669.2,1.4 665.5,5.3 661.7,1.4 658,5.3 654.3,1.4 650.6,5.3 646.9,1.4 643.2,5.3 639.5,1.4 635.7,5.3 632,1.4 628.3,5.3 
	624.6,1.4 620.9,5.3 617.2,1.4 613.5,5.3 609.7,1.4 606,5.3 602.3,1.4 598.6,5.3 594.9,1.4 591.2,5.3 587.5,1.4 583.8,5.3 580,1.4 
	576.3,5.3 572.6,1.4 568.9,5.3 565.2,1.3 561.5,5.1 557.8,1.4 554,5.3 550.3,1.4 546.6,5.3 542.9,1.4 539.2,5.3 535.5,1.4 
	531.7,5.3 528,1.4 524.3,5.3 520.6,1.4 516.9,5.3 513.2,1.4 509.5,5.3 505.7,1.4 502,5.3 498.3,1.4 494.6,5.3 494.6,5.2 490.9,1.4 
	487.2,5.3 483.5,1.4 479.8,5.3 476,1.4 472.3,5.2 468.6,1.4 464.9,5.2 461.2,1.4 457.5,5.3 453.8,1.4 450.1,5.3 446.3,1.4 
	442.6,5.2 438.9,1.4 435.2,5.3 431.5,1.4 427.8,5.2 424.1,1.4 420.3,5.2 416.6,1.4 412.9,5.2 409.2,1.4 405.5,5.2 401.8,1.4 
	398.1,5.2 398.1,5.3 394.4,1.4 390.6,5.3 386.9,1.4 383.2,5.2 379.5,1.4 375.8,5.2 372.1,1.4 368.4,5.3 364.6,1.4 360.9,5.2 
	357.2,1.4 353.5,5.3 349.8,1.4 346.1,5.2 342.4,1.4 338.7,5.2 334.9,1.4 331.2,5.2 327.5,1.4 323.8,5.3 320.1,1.4 316.4,5.3 
	316.4,5.2 316.4,5.3 312.7,1.4 309,5.3 308.9,5.2 308.9,5.3 305.2,1.4 301.5,5.3 301.5,5.2 301.5,5.3 297.8,1.4 294.1,5.3 
	294.1,5.2 294.1,5.3 290.4,1.4 286.7,5.3 286.7,5.2 286.7,5.3 283,1.4 279.2,5.3 279.2,5.2 279.2,5.3 275.5,1.4 271.8,5.3 
	271.8,5.2 271.8,5.3 268.1,1.4 264.4,5.3 264.4,5.2 264.4,5.3 260.7,1.4 257,5.3 257,5.2 257,5.3 253.3,1.4 249.5,5.3 249.5,5.2 
	249.5,5.3 245.8,1.4 242.1,5.3 242.1,5.2 242.1,5.3 238.4,1.4 234.7,5.3 234.7,5.2 234.7,5.3 231,1.4 227.3,5.3 227.3,5.2 
	227.3,5.3 223.5,1.4 219.8,5.3 219.8,5.2 219.8,5.3 216.1,1.4 212.4,5.3 212.4,5.2 212.4,5.3 208.7,1.4 205,5.3 205,5.2 205,5.3 
	201.3,1.4 197.6,5.3 197.6,5.2 197.6,5.3 193.8,1.4 190.1,5.3 190.1,5.2 190.1,5.3 186.4,1.4 182.7,5.3 182.7,5.2 182.7,5.3 
	179,1.4 175.3,5.3 175.3,5.2 175.3,5.3 171.6,1.4 167.9,5.3 167.8,5.2 167.8,5.3 164.1,1.4 160.4,5.3 160.4,5.2 160.4,5.3 
	156.7,1.4 153,5.3 153,5.2 153,5.3 149.3,1.4 145.6,5.3 145.6,5.2 145.6,5.3 141.9,1.4 138.1,5.3 138.1,5.2 138.1,5.3 134.4,1.4 
	130.7,5.3 127,1.4 123.3,5.3 119.6,1.4 115.9,5.3 112.1,1.4 108.4,5.3 104.7,1.4 101,5.3 97.3,1.4 93.6,5.3 89.9,1.4 86.2,5.3 
	82.5,1.4 78.7,5.3 75,1.4 71.3,5.3 67.6,1.4 63.9,5.3 60.2,1.4 56.4,5.3 52.7,1.4 49,5.3 45.3,1.4 41.6,5.3 37.9,1.4 34.2,5.3 
	30.4,1.4 26.7,5.3 23,1.4 19.3,5.3 15.6,1.4 11.9,5.3 8.2,1.3 4.5,5.1 0.7,1.4 "/>
</svg>
