<?xml version="1.0" encoding="utf-8"?>
<!-- Generator: Adobe Illustrator 19.0.0, SVG Export Plug-In . SVG Version: 6.00 Build 0)  -->
<svg version="1.1" id="Layer_1" xmlns="http://www.w3.org/2000/svg" xmlns:xlink="http://www.w3.org/1999/xlink" x="0px" y="0px"
	 viewBox="0 0 90 90" style="enable-background:new 0 0 90 90;" xml:space="preserve">
<style type="text/css">
	.st0{fill:#84754E;}
	.st1{fill:none;stroke:#84754E;stroke-miterlimit:10;}
</style>
<g id="XMLID_44_">
	<path id="XMLID_45_" class="st0" d="M22.7,34.6c0-0.1,0-0.2-0.1-0.3c-0.2-0.4-0.6-0.7-0.9-0.9c-0.4-0.2-0.8-0.3-1.2-0.3
		c-0.4,0-0.8,0.1-1.2,0.3c-0.4,0.2-0.7,0.5-1,0.9c-0.3,0.4-0.5,0.9-0.6,1.5c-0.2,0.6-0.2,1.2-0.2,2c0,0.7,0.1,1.4,0.2,1.9
		c0.2,0.6,0.4,1.1,0.7,1.5c0.3,0.4,0.6,0.7,1,1c0.4,0.2,0.8,0.3,1.2,0.3c0.4,0,0.9-0.1,1.3-0.4c0.4-0.3,0.7-0.6,1-1l0.9,0.6
		c-0.2,0.3-0.4,0.6-0.6,0.8c-0.3,0.2-0.5,0.4-0.8,0.6c-0.3,0.2-0.6,0.3-0.8,0.4c-0.3,0.1-0.6,0.1-0.9,0.1c-0.6,0-1.2-0.1-1.7-0.3
		c-0.5-0.2-1-0.6-1.4-1c-0.4-0.5-0.7-1.1-1-1.8c-0.2-0.7-0.3-1.6-0.3-2.6c0-1.1,0.1-2,0.4-2.8c0.3-0.7,0.6-1.3,1-1.8
		c0.4-0.4,0.9-0.8,1.4-0.9c0.5-0.2,1-0.3,1.4-0.3c0.4,0,0.7,0.1,1.1,0.2c0.4,0.1,0.7,0.3,1,0.4c0.3,0.2,0.6,0.4,0.8,0.7
		c0.2,0.3,0.4,0.6,0.6,0.9l-1.2,0.6C22.7,34.7,22.7,34.7,22.7,34.6z"/>
	<path id="XMLID_47_" class="st0" d="M30,34.8c0.5,0,1,0.1,1.4,0.3c0.5,0.2,0.8,0.5,1.2,0.9c0.3,0.4,0.6,0.8,0.8,1.4
		c0.2,0.5,0.3,1.1,0.3,1.8c0,0.7-0.1,1.3-0.3,1.8c-0.2,0.5-0.5,1-0.8,1.4c-0.3,0.4-0.7,0.7-1.2,0.9c-0.5,0.2-0.9,0.3-1.5,0.3
		c-0.5,0-1-0.1-1.5-0.3c-0.5-0.2-0.9-0.5-1.2-0.9s-0.6-0.8-0.8-1.4c-0.2-0.5-0.3-1.1-0.3-1.7c0-0.6,0.1-1.2,0.3-1.7
		c0.2-0.5,0.5-1,0.8-1.4s0.8-0.7,1.2-0.9C29,35,29.5,34.8,30,34.8z M32.4,39.2c0-0.5-0.1-1-0.2-1.4c-0.1-0.4-0.3-0.7-0.5-1
		s-0.5-0.5-0.8-0.6c-0.3-0.1-0.6-0.2-0.9-0.2c-0.3,0-0.6,0.1-0.9,0.2c-0.3,0.1-0.6,0.4-0.8,0.6s-0.4,0.6-0.5,1
		c-0.1,0.4-0.2,0.8-0.2,1.3c0,0.5,0.1,0.9,0.2,1.3c0.1,0.4,0.3,0.7,0.5,1s0.5,0.5,0.8,0.7c0.3,0.2,0.6,0.2,1,0.2
		c0.3,0,0.7-0.1,0.9-0.2c0.3-0.1,0.6-0.3,0.8-0.6c0.2-0.3,0.4-0.6,0.5-1C32.4,40.1,32.4,39.7,32.4,39.2z"/>
	<path id="XMLID_50_" class="st0" d="M36,43.2V35h1.2v0.8c0.2-0.3,0.4-0.5,0.7-0.7c0.3-0.2,0.6-0.3,1-0.3c0.3,0,0.7,0.1,0.9,0.3
		c0.3,0.2,0.4,0.5,0.5,0.9c0.2-0.4,0.4-0.7,0.7-0.9c0.3-0.2,0.7-0.3,1.1-0.3c0.6,0,1,0.2,1.2,0.6c0.3,0.4,0.4,0.9,0.4,1.5v6.3h-1.2
		v-5.8c0-0.4,0-0.7-0.1-0.9c0-0.2-0.1-0.4-0.2-0.5s-0.2-0.2-0.3-0.2s-0.2,0-0.3,0c-0.2,0-0.3,0.1-0.5,0.2c-0.2,0.1-0.3,0.3-0.4,0.5
		c-0.1,0.2-0.2,0.4-0.3,0.7c-0.1,0.2-0.1,0.5-0.1,0.7v5.4h-1.2v-5.7c0-0.7-0.1-1.1-0.2-1.4s-0.3-0.3-0.7-0.3c-0.3,0-0.6,0.2-0.8,0.5
		s-0.4,0.8-0.4,1.4v5.5H36z"/>
	<path id="XMLID_52_" class="st0" d="M47.1,35h3.3v7.2h1.9v1H47v-1h2.1v-6.1h-2V35z M49.2,31.7c0.2-0.2,0.4-0.3,0.6-0.3
		c0.3,0,0.5,0.1,0.7,0.3c0.2,0.2,0.3,0.4,0.3,0.7s-0.1,0.5-0.3,0.6c-0.2,0.2-0.4,0.3-0.7,0.3c-0.3,0-0.5-0.1-0.6-0.3
		c-0.2-0.2-0.3-0.4-0.3-0.6C48.9,32.1,49,31.9,49.2,31.7z"/>
	<path id="XMLID_55_" class="st0" d="M56.4,43.2V35h1.3v1.5c0.3-0.5,0.7-0.9,1.2-1.2c0.5-0.3,1-0.5,1.5-0.5c0.4,0,0.7,0.1,1,0.2
		s0.6,0.3,0.8,0.6s0.4,0.6,0.5,1.1c0.1,0.4,0.2,1,0.2,1.6v5h-1.3v-5c0-0.9-0.1-1.5-0.4-1.8c-0.3-0.3-0.7-0.5-1.1-0.5
		c-0.3,0-0.6,0.1-0.8,0.2c-0.3,0.1-0.6,0.3-0.8,0.5c-0.2,0.2-0.4,0.5-0.6,0.8c-0.2,0.3-0.2,0.7-0.2,1.1v4.7H56.4z"/>
	<path id="XMLID_57_" class="st0" d="M71.1,35.5c0.6-0.5,1.3-0.7,2.1-0.7h0.2l0.2,1.1c-0.1,0-0.2,0-0.2,0s-0.2,0-0.2,0
		c-0.5,0-1,0.1-1.4,0.4c0.3,0.4,0.4,0.9,0.4,1.4c0,0.4-0.1,0.7-0.2,1.1c-0.2,0.3-0.4,0.6-0.6,0.9c-0.3,0.3-0.6,0.5-0.9,0.6
		c-0.4,0.2-0.7,0.2-1.2,0.2c-0.3,0-0.7-0.1-1-0.2c-0.4,0.4-0.6,0.7-0.6,0.9c0,0.2,0.1,0.4,0.4,0.5c0.2,0.1,0.6,0.2,1,0.2
		c0.2,0,0.5,0,0.7,0c0.2,0,0.5,0,0.7,0c0.5,0,1,0.1,1.4,0.2c0.4,0.1,0.7,0.2,0.9,0.4c0.2,0.2,0.4,0.4,0.5,0.7s0.2,0.5,0.2,0.8
		c0,0.3-0.1,0.6-0.2,0.9c-0.2,0.3-0.4,0.6-0.7,0.8c-0.3,0.2-0.7,0.4-1.2,0.6c-0.5,0.1-1,0.2-1.7,0.2c-0.7,0-1.2-0.1-1.7-0.2
		c-0.5-0.1-0.9-0.2-1.1-0.4c-0.3-0.2-0.5-0.4-0.7-0.6c-0.2-0.2-0.2-0.5-0.2-0.7c0-0.6,0.5-1.3,1.4-1.8c-0.4-0.2-0.7-0.6-0.7-1.1
		c0-0.5,0.3-1,0.9-1.5c-0.4-0.3-0.7-0.6-0.9-1c-0.2-0.4-0.3-0.8-0.3-1.3c0-0.4,0.1-0.8,0.3-1.1c0.2-0.4,0.4-0.7,0.7-0.9
		c0.3-0.3,0.6-0.5,1-0.6c0.4-0.1,0.7-0.2,1.1-0.2C69.9,34.8,70.6,35,71.1,35.5z M67.9,42.8c-0.7,0.4-1,0.8-1,1.3
		c0,0.2,0.1,0.4,0.2,0.6c0.1,0.2,0.3,0.3,0.6,0.4c0.2,0.1,0.5,0.2,0.8,0.2s0.7,0.1,1,0.1c0.7,0,1.3-0.1,1.8-0.4
		c0.5-0.3,0.7-0.6,0.7-1.1c0-0.3-0.2-0.6-0.4-0.8s-0.6-0.3-1.2-0.3c-0.1,0-0.1,0-0.2,0s-0.1,0-0.2,0c-0.5,0-0.9,0-1.2,0
		C68.5,42.9,68.2,42.8,67.9,42.8z M67.8,36.3c-0.2,0.2-0.3,0.4-0.4,0.6s-0.1,0.4-0.1,0.7c0,0.2,0,0.5,0.1,0.7
		c0.1,0.2,0.2,0.4,0.4,0.6s0.4,0.3,0.6,0.4c0.2,0.1,0.5,0.1,0.7,0.1c0.3,0,0.5,0,0.7-0.1c0.2-0.1,0.4-0.2,0.6-0.4
		c0.2-0.2,0.3-0.4,0.4-0.6c0.1-0.2,0.1-0.4,0.1-0.7c0-0.2,0-0.5-0.1-0.7c-0.1-0.2-0.2-0.4-0.4-0.6c-0.2-0.2-0.4-0.3-0.6-0.4
		s-0.5-0.1-0.7-0.1C68.6,35.8,68.2,36,67.8,36.3z"/>
</g>
<g id="XMLID_33_">
	<path id="XMLID_34_" class="st0" d="M33.2,51.6l-0.8,1.1c-0.1,0-0.1-0.1-0.1-0.1s0-0.1,0-0.2c-0.2-0.3-0.5-0.5-0.9-0.8
		s-0.9-0.4-1.4-0.4c-0.2,0-0.5,0-0.7,0.1c-0.2,0.1-0.4,0.1-0.6,0.2c-0.2,0.1-0.3,0.2-0.4,0.4s-0.1,0.3-0.1,0.5c0,0.1,0,0.3,0.1,0.4
		c0.1,0.1,0.2,0.2,0.3,0.3c0.2,0.1,0.4,0.2,0.7,0.3c0.3,0.1,0.7,0.2,1.1,0.4c1,0.3,1.8,0.6,2.2,1s0.6,0.8,0.6,1.4
		c0,0.4-0.1,0.7-0.2,1c-0.2,0.3-0.4,0.6-0.7,0.8s-0.7,0.4-1.1,0.6s-0.9,0.2-1.4,0.2c-1.4,0-2.5-0.4-3.5-1.3l0.7-1.3
		c0,0,0.1,0.1,0.1,0.2c0,0.1,0.1,0.2,0.1,0.3s0.2,0.2,0.4,0.4s0.5,0.3,0.9,0.5c0.2,0.1,0.4,0.1,0.6,0.2c0.2,0,0.5,0.1,0.7,0.1
		c0.2,0,0.5,0,0.7-0.1c0.2-0.1,0.5-0.1,0.7-0.3c0.2-0.1,0.4-0.3,0.5-0.4c0.1-0.2,0.2-0.3,0.2-0.6c0-0.3-0.1-0.6-0.4-0.8
		c-0.3-0.2-0.8-0.4-1.6-0.7c-0.5-0.2-0.9-0.3-1.1-0.3c-0.4-0.2-0.7-0.3-0.9-0.4c-0.2-0.1-0.4-0.3-0.5-0.5c-0.2-0.2-0.3-0.4-0.4-0.6
		S27,52.8,27,52.5c0-0.3,0.1-0.6,0.2-0.8c0.2-0.3,0.4-0.5,0.7-0.7c0.3-0.2,0.6-0.4,1-0.5c0.4-0.1,0.8-0.2,1.3-0.2
		C31.4,50.3,32.4,50.8,33.2,51.6z"/>
	<path id="XMLID_36_" class="st0" d="M39.9,50.3c0.5,0,1,0.1,1.4,0.3c0.5,0.2,0.8,0.5,1.2,0.9c0.3,0.4,0.6,0.8,0.8,1.4
		c0.2,0.5,0.3,1.1,0.3,1.8c0,0.7-0.1,1.3-0.3,1.8c-0.2,0.5-0.5,1-0.8,1.4c-0.3,0.4-0.7,0.7-1.2,0.9c-0.5,0.2-0.9,0.3-1.5,0.3
		c-0.5,0-1-0.1-1.5-0.3c-0.5-0.2-0.9-0.5-1.2-0.9s-0.6-0.8-0.8-1.4c-0.2-0.5-0.3-1.1-0.3-1.7c0-0.6,0.1-1.2,0.3-1.7
		c0.2-0.5,0.5-1,0.8-1.4s0.8-0.7,1.2-0.9C38.9,50.5,39.4,50.3,39.9,50.3z M42.3,54.7c0-0.5-0.1-1-0.2-1.4c-0.1-0.4-0.3-0.7-0.5-1
		s-0.5-0.5-0.8-0.6c-0.3-0.1-0.6-0.2-0.9-0.2c-0.3,0-0.6,0.1-0.9,0.2c-0.3,0.1-0.6,0.4-0.8,0.6s-0.4,0.6-0.5,1
		c-0.1,0.4-0.2,0.8-0.2,1.3c0,0.5,0.1,0.9,0.2,1.3c0.1,0.4,0.3,0.7,0.5,1s0.5,0.5,0.8,0.7c0.3,0.2,0.6,0.2,1,0.2
		c0.3,0,0.7-0.1,0.9-0.2c0.3-0.1,0.6-0.3,0.8-0.6c0.2-0.3,0.4-0.6,0.5-1C42.3,55.6,42.3,55.2,42.3,54.7z"/>
	<path id="XMLID_39_" class="st0" d="M49.8,50.3c0.5,0,1,0.1,1.4,0.3c0.5,0.2,0.8,0.5,1.2,0.9s0.6,0.8,0.8,1.4
		c0.2,0.5,0.3,1.1,0.3,1.8c0,0.7-0.1,1.3-0.3,1.8c-0.2,0.5-0.5,1-0.8,1.4c-0.3,0.4-0.7,0.7-1.2,0.9S50.3,59,49.8,59
		c-0.5,0-1-0.1-1.5-0.3c-0.5-0.2-0.9-0.5-1.2-0.9c-0.3-0.4-0.6-0.8-0.8-1.4c-0.2-0.5-0.3-1.1-0.3-1.7c0-0.6,0.1-1.2,0.3-1.7
		c0.2-0.5,0.5-1,0.8-1.4s0.8-0.7,1.2-0.9C48.8,50.5,49.3,50.3,49.8,50.3z M52.2,54.7c0-0.5-0.1-1-0.2-1.4c-0.1-0.4-0.3-0.7-0.5-1
		c-0.2-0.3-0.5-0.5-0.8-0.6c-0.3-0.1-0.6-0.2-0.9-0.2s-0.6,0.1-0.9,0.2c-0.3,0.1-0.6,0.4-0.8,0.6c-0.2,0.3-0.4,0.6-0.5,1
		s-0.2,0.8-0.2,1.3c0,0.5,0.1,0.9,0.2,1.3c0.1,0.4,0.3,0.7,0.5,1c0.2,0.3,0.5,0.5,0.8,0.7c0.3,0.2,0.6,0.2,1,0.2
		c0.3,0,0.7-0.1,0.9-0.2c0.3-0.1,0.6-0.3,0.8-0.6c0.2-0.3,0.4-0.6,0.5-1C52.2,55.6,52.2,55.2,52.2,54.7z"/>
	<path id="XMLID_42_" class="st0" d="M56.4,58.8v-8.2h1.3V52c0.3-0.5,0.7-0.9,1.2-1.2s1-0.5,1.5-0.5c0.4,0,0.7,0.1,1,0.2
		s0.6,0.3,0.8,0.6c0.2,0.3,0.4,0.6,0.5,1.1c0.1,0.4,0.2,1,0.2,1.6v5h-1.3v-5c0-0.9-0.1-1.5-0.4-1.8c-0.3-0.3-0.7-0.5-1.1-0.5
		c-0.3,0-0.6,0.1-0.8,0.2c-0.3,0.1-0.6,0.3-0.8,0.5c-0.2,0.2-0.4,0.5-0.6,0.8c-0.2,0.3-0.2,0.7-0.2,1.1v4.7H56.4z"/>
</g>
<g id="XMLID_2_">
	<circle id="XMLID_5_" class="st1" cx="44.8" cy="45.8" r="39"/>
</g>
</svg>
