<?xml version="1.0" encoding="utf-8"?>
<svg class="logo" version="1.1" id="Layer_1" xmlns="http://www.w3.org/2000/svg" xmlns:xlink="http://www.w3.org/1999/xlink" x="0px" y="0px"
   viewBox="0 0 69.5 22.5" style="enable-background:new 0 0 69.5 22.5;" xml:space="preserve">
<style type="text/css">
  .st0{clip-path:url(#XMLID_24_);}
  svg {
    fill: #fff;
  }
</style>
<g id="XMLID_2_">
  <defs>
    <path id="XMLID_3_" d="M67.6,8.4c-1.6-0.6-3.5-1-4.9-1c-2.6,0-5.3,1.1-5.3,4.2c0,5,8.4,4.3,8.4,6.7c0,0.8-0.8,1.6-2.4,1.6
      c-1.8,0-3.4-1.1-4.5-3.1h-1.3l0.2,3.5c2.3,0.9,3.9,1.2,5.6,1.2c3.4,0,5.4-1.6,5.4-4.4c0-5.3-8.3-4.6-8.3-7c0-0.8,0.9-1.4,2.1-1.4
      c1.7,0,3.3,1.1,4.2,2.9h1.3L67.6,8.4z M50.8,14.3c-2.7,0.8-4.3,1.4-4.3,3c0,1.1,0.7,2,1.7,2c0.7,0,1.5-0.4,2.6-1.3V14.3z
       M53.7,21.5c-1.5,0-2.4-0.6-3-2c-1.6,1.5-2.8,2-4.7,2c-2.5,0-4.2-1.3-4.2-3.1c0-3.8,5.7-4.7,8.9-5.5v-2.2c0-1.2-0.8-2-2.1-2
      c-1.5,0-2.7,1.1-2,3.1l-3.9,1.3c-0.3-0.7-0.4-1.3-0.4-2c0-2.4,2.4-3.8,7.1-3.8c4.2,0,5.6,1.2,5.6,3.7v6.2c0,1.3,0.8,1.3,1.8,0.8
      l0.2,1.5C56.3,20.8,55,21.5,53.7,21.5z M39.5,0.5h-1l-5.7,1.6V3l2.4,1.3v12.9c0,1.7-0.7,2.6-2.4,2.6v1.4h8.8v-1.4
      c-1.7-0.1-2.1-1.2-2.1-2.6V0.5z M13.4,21.2v-1.4c2-0.2,2.5-1,1.8-2.8L10.3,4.3l-2.7,7.5h4.3l0.8,1.8H6.9L6,16.3
      c-0.6,1.9-0.3,3.3,1.6,3.5v1.4H0.7v-1.4c2-0.4,2.5-1.2,3.1-2.7L9.6,2.2L8.9,0.8h5.5l6.3,16.5c0.6,1.7,1.4,2.4,2.6,2.4v1.4H13.4z
       M28.2,9.5h4V7.7h-4V4.3h-1.3c-0.5,1.5-2.5,3.3-4.9,3.7v1.6h1.9v8.6c0,2.1,1.5,3.4,3.7,3.4c1.8,0,3.6-0.5,4.6-1.3v-1.6
      C31.4,18.9,31,19,30.3,19c-1.7,0-2.1-0.7-2.1-2.3V9.5z"/>
  </defs>
  <clipPath id="XMLID_24_">
    <use xlink:href="#XMLID_3_"  style="overflow:visible;"/>
  </clipPath>
  <rect id="XMLID_10_" x="-4.3" y="-4.5" class="st0" width="78" height="31"/>
</g>
</svg>