<?xml version="1.0" encoding="utf-8"?>
<!-- Generator: Adobe Illustrator 19.0.0, SVG Export Plug-In . SVG Version: 6.00 Build 0)  -->
<svg version="1.1" id="Layer_1" xmlns="http://www.w3.org/2000/svg" xmlns:xlink="http://www.w3.org/1999/xlink" x="0px" y="0px"
	 viewBox="0 0 90 90" style="enable-background:new 0 0 90 90;" xml:space="preserve">
<style type="text/css">
	.st0{fill:#84754E;}
	.st1{fill:none;stroke:#84754E;stroke-miterlimit:10;}
</style>
<g id="XMLID_107_">
	<path id="XMLID_108_" class="st0" d="M32.8,33.4L32,34.4c-0.1,0-0.1-0.1-0.1-0.2s0-0.1,0-0.2c-0.2-0.3-0.5-0.6-0.9-0.8
		C30.5,33.1,30,33,29.5,33c-0.6,0-1,0.2-1.4,0.5s-0.5,0.7-0.5,1.2c0,0.3,0,0.5,0.1,0.7c0.1,0.2,0.2,0.4,0.4,0.6
		c0.2,0.2,0.5,0.4,0.8,0.5c0.4,0.2,0.8,0.4,1.4,0.6c0.6,0.2,1,0.5,1.4,0.7c0.4,0.2,0.6,0.5,0.9,0.7s0.4,0.5,0.5,0.8
		c0.1,0.3,0.1,0.6,0.1,0.9c0,0.4-0.1,0.8-0.2,1.2c-0.1,0.4-0.4,0.7-0.7,1c-0.3,0.3-0.7,0.6-1.2,0.7c-0.5,0.2-1,0.3-1.7,0.3
		c-1.5,0-2.6-0.5-3.5-1.4l0.7-1.3c0.1,0,0.1,0.1,0.1,0.2s0,0.2,0.1,0.2c0.3,0.3,0.6,0.6,1.1,0.9c0.5,0.2,1,0.4,1.7,0.4
		c0.3,0,0.6-0.1,0.9-0.2s0.5-0.3,0.7-0.5c0.2-0.2,0.4-0.4,0.5-0.7c0.1-0.3,0.2-0.5,0.2-0.8c0-0.2,0-0.4-0.1-0.6
		c-0.1-0.2-0.2-0.4-0.4-0.5c-0.2-0.2-0.4-0.3-0.8-0.5c-0.3-0.2-0.8-0.4-1.3-0.6c-0.6-0.2-1.1-0.5-1.5-0.7c-0.4-0.2-0.7-0.5-0.9-0.7
		s-0.4-0.5-0.5-0.8c-0.1-0.3-0.2-0.6-0.2-0.9c0-0.4,0.1-0.8,0.3-1.2c0.2-0.4,0.4-0.7,0.7-0.9c0.3-0.3,0.7-0.5,1.1-0.6
		c0.4-0.2,0.9-0.2,1.3-0.2c0.6,0,1.2,0.1,1.7,0.4S32.4,32.9,32.8,33.4z"/>
	<path id="XMLID_110_" class="st0" d="M39.4,34.8c0.5,0,1,0.1,1.4,0.3c0.5,0.2,0.8,0.5,1.2,0.9s0.6,0.8,0.8,1.4
		c0.2,0.5,0.3,1.1,0.3,1.8c0,0.7-0.1,1.3-0.3,1.8c-0.2,0.5-0.5,1-0.8,1.4c-0.3,0.4-0.7,0.7-1.2,0.9s-0.9,0.3-1.5,0.3
		c-0.5,0-1-0.1-1.5-0.3c-0.5-0.2-0.9-0.5-1.2-0.9c-0.3-0.4-0.6-0.8-0.8-1.4c-0.2-0.5-0.3-1.1-0.3-1.7c0-0.6,0.1-1.2,0.3-1.7
		c0.2-0.5,0.5-1,0.8-1.4s0.8-0.7,1.2-0.9C38.4,35,38.9,34.8,39.4,34.8z M41.8,39.2c0-0.5-0.1-1-0.2-1.4c-0.1-0.4-0.3-0.7-0.5-1
		c-0.2-0.3-0.5-0.5-0.8-0.6c-0.3-0.1-0.6-0.2-0.9-0.2s-0.6,0.1-0.9,0.2c-0.3,0.1-0.6,0.4-0.8,0.6c-0.2,0.3-0.4,0.6-0.5,1
		s-0.2,0.8-0.2,1.3c0,0.5,0.1,0.9,0.2,1.3c0.1,0.4,0.3,0.7,0.5,1c0.2,0.3,0.5,0.5,0.8,0.7c0.3,0.2,0.6,0.2,1,0.2
		c0.3,0,0.7-0.1,0.9-0.2c0.3-0.1,0.6-0.3,0.8-0.6c0.2-0.3,0.4-0.6,0.5-1C41.8,40.1,41.8,39.7,41.8,39.2z"/>
	<path id="XMLID_113_" class="st0" d="M46.3,31.3h3.6v10.9h2.4v1h-6.1v-1h2.4v-9.9h-2.3V31.3z"/>
	<path id="XMLID_115_" class="st0" d="M61.3,36.2v-5h1.4c0,0.1,0,0.2-0.1,0.2c-0.1,0.1-0.1,0.2-0.1,0.3l0,10.7c0,0.3,0,0.5,0.1,0.8
		h-1.3c0-0.1-0.1-0.3-0.1-0.6v-0.7c-0.3,0.5-0.6,0.8-1.1,1.1c-0.5,0.3-0.9,0.4-1.4,0.4c-0.5,0-0.9-0.1-1.3-0.3
		c-0.4-0.2-0.8-0.5-1.1-0.8c-0.3-0.4-0.5-0.8-0.7-1.4c-0.2-0.5-0.3-1.2-0.3-1.9c0-0.8,0.1-1.4,0.3-1.9c0.2-0.5,0.5-1,0.8-1.3
		c0.3-0.3,0.7-0.6,1.1-0.8s0.8-0.2,1.2-0.2c0.6,0,1.1,0.1,1.5,0.4S61.1,35.8,61.3,36.2z M57.5,36.5c-0.5,0.5-0.8,1.3-0.8,2.4
		c0,1,0.2,1.9,0.6,2.5s1,0.9,1.7,0.9c0.2,0,0.4,0,0.6-0.1c0.2-0.1,0.4-0.2,0.6-0.3c0.2-0.1,0.3-0.3,0.5-0.5c0.1-0.2,0.2-0.4,0.3-0.6
		c0.1-0.4,0.2-1,0.2-1.7c0-0.5,0-0.8-0.1-1.1c0-0.3-0.1-0.6-0.2-0.8c-0.1-0.2-0.2-0.4-0.3-0.5c-0.1-0.1-0.3-0.3-0.4-0.4
		C60,36.1,59.8,36,59.6,36c-0.2-0.1-0.4-0.1-0.5-0.1c-0.3,0-0.6,0-0.9,0.1C58,36.1,57.8,36.2,57.5,36.5z"/>
</g>
<g id="XMLID_2_">
	<path id="XMLID_5_" class="st0" d="M34.5,50.3c0.5,0,1,0.1,1.4,0.3c0.5,0.2,0.8,0.5,1.2,0.9s0.6,0.8,0.8,1.4
		c0.2,0.5,0.3,1.1,0.3,1.8c0,0.7-0.1,1.3-0.3,1.8c-0.2,0.5-0.5,1-0.8,1.4s-0.7,0.7-1.2,0.9C35.5,58.9,35,59,34.5,59
		c-0.5,0-1-0.1-1.5-0.3c-0.5-0.2-0.9-0.5-1.2-0.9s-0.6-0.8-0.8-1.4c-0.2-0.5-0.3-1.1-0.3-1.7c0-0.6,0.1-1.2,0.3-1.7
		c0.2-0.5,0.5-1,0.8-1.4c0.4-0.4,0.8-0.7,1.2-0.9C33.5,50.5,34,50.3,34.5,50.3z M36.9,54.7c0-0.5-0.1-1-0.2-1.4
		c-0.1-0.4-0.3-0.7-0.5-1s-0.5-0.5-0.8-0.6c-0.3-0.1-0.6-0.2-0.9-0.2s-0.6,0.1-0.9,0.2c-0.3,0.1-0.6,0.4-0.8,0.6s-0.4,0.6-0.5,1
		c-0.1,0.4-0.2,0.8-0.2,1.3c0,0.5,0.1,0.9,0.2,1.3c0.1,0.4,0.3,0.7,0.5,1s0.5,0.5,0.8,0.7c0.3,0.2,0.6,0.2,1,0.2
		c0.3,0,0.7-0.1,0.9-0.2c0.3-0.1,0.6-0.3,0.8-0.6c0.2-0.3,0.4-0.6,0.5-1C36.8,55.6,36.9,55.2,36.9,54.7z"/>
	<path id="XMLID_103_" class="st0" d="M40.9,50.5h1.3v4.6c0,0.5,0,1,0.1,1.3c0.1,0.4,0.2,0.6,0.4,0.9s0.4,0.4,0.6,0.5
		c0.2,0.1,0.5,0.1,0.7,0.1c0.3,0,0.6-0.1,0.8-0.2c0.3-0.1,0.5-0.3,0.7-0.5c0.2-0.2,0.4-0.5,0.5-0.9c0.1-0.3,0.2-0.8,0.2-1.3v-4.5
		h1.3V58c0,0.3,0,0.5,0.1,0.7h-1.4c0-0.1,0-0.2,0-0.3c0-0.1,0-0.2,0-0.4l0-0.6c-0.3,0.5-0.6,0.8-1.1,1.1c-0.5,0.3-0.9,0.4-1.5,0.4
		c-0.4,0-0.8-0.1-1.1-0.2c-0.3-0.1-0.6-0.4-0.9-0.7c-0.3-0.3-0.5-0.7-0.6-1.2c-0.1-0.5-0.2-1.1-0.2-1.7L40.9,50.5z"/>
	<path id="XMLID_105_" class="st0" d="M53.1,48.3l1.4-0.2c0,0.1,0,0.2,0,0.3c0,0.1-0.1,0.2-0.1,0.2l-0.2,1.9h2.7v1h-2.7
		c-0.1,1.1-0.2,2.1-0.2,3c0,0.6,0,1.1,0,1.5c0,0.4,0.1,0.7,0.2,0.9c0.1,0.2,0.2,0.4,0.4,0.5c0.2,0.1,0.5,0.2,0.8,0.2
		c0.6,0,1.2-0.3,1.8-0.8l0.4,1c-0.8,0.6-1.7,0.9-2.6,0.9c-0.9,0-1.5-0.3-1.9-0.8c-0.4-0.5-0.6-1.4-0.5-2.6c0-0.4,0-1,0-1.7
		c0-0.7,0.1-1.5,0.1-2.3H51v-1h2L53.1,48.3z"/>
</g>
<g id="XMLID_9_">
	<circle id="XMLID_10_" class="st1" cx="44.8" cy="45.8" r="39"/>
</g>
</svg>
