<?xml version="1.0" encoding="utf-8"?>
<!-- Generator: Adobe Illustrator 19.0.0, SVG Export Plug-In . SVG Version: 6.00 Build 0)  -->
<svg version="1.1" id="Layer_1" xmlns="http://www.w3.org/2000/svg" xmlns:xlink="http://www.w3.org/1999/xlink" x="0px" y="0px"
	 viewBox="508.2 376.9 252.4 7.2" style="enable-background:new 508.2 376.9 252.4 7.2;" xml:space="preserve">
<style type="text/css">
	.st0{fill:#D1D3D4;}
</style>
<g id="XMLID_1_">
	<polygon class="st0" points="760.7,377.4 760.7,378.9 757,382.9 753.3,379 749.6,382.9 745.9,379 742.2,382.9 738.5,379 
		734.7,382.9 731,379 727.3,382.9 723.6,379 719.9,382.9 716.2,379 712.5,382.9 708.7,379 705,382.9 701.3,379 697.6,382.9 
		693.9,379 690.2,382.9 686.4,379 682.7,382.9 679,379 675.3,382.9 671.6,379 667.9,382.9 664.2,379 660.5,382.9 656.8,379 
		653,382.9 649.3,379 645.6,382.9 641.9,379 638.2,382.9 634.5,379 634.5,379 634.5,379 630.8,382.9 627,379 623.3,382.9 619.7,379 
		616,382.9 612.2,379 608.5,382.9 604.8,379 601,382.9 597.3,379 593.7,382.9 590,379 586.2,382.9 582.5,379 578.8,382.9 575,379 
		571.3,382.9 567.7,379 564,382.9 560.2,379 556.5,382.9 552.8,379 549,382.9 545.3,379 541.7,382.9 538,379 534.3,382.9 530.5,379 
		526.8,382.9 523,379 519.3,382.9 515.7,379 512,382.9 508.2,378.9 508.2,377.4 512,381.4 515.7,377.5 519.3,381.4 523,377.5 
		526.8,381.4 530.5,377.5 534.2,381.4 538,377.5 541.7,381.4 545.3,377.5 549,381.4 552.8,377.5 556.5,381.4 560.3,377.5 564,381.4 
		567.7,377.5 571.3,381.4 575,377.5 578.8,381.4 582.5,377.5 586.2,381.4 590,377.5 593.7,381.4 597.3,377.5 601,381.4 604.8,377.5 
		608.5,381.4 612.2,377.5 616,381.4 619.7,377.5 623.3,381.4 627,377.5 630.8,381.4 634.5,377.5 634.5,377.5 634.5,377.5 
		638.2,381.4 641.9,377.5 645.6,381.4 649.3,377.5 653,381.4 656.8,377.5 660.5,381.4 664.2,377.5 667.9,381.4 671.6,377.5 
		675.3,381.4 679,377.5 682.7,381.4 686.4,377.5 690.2,381.4 693.9,377.5 697.6,381.4 701.3,377.5 705,381.4 708.7,377.5 
		712.5,381.4 716.2,377.5 719.9,381.4 723.6,377.5 727.3,381.4 731,377.5 734.7,381.4 738.5,377.5 742.2,381.4 745.9,377.5 
		749.6,381.4 753.3,377.5 757,381.4 	"/>
</g>
</svg>
